<?xml version="1.0" encoding="UTF-8" standalone="no"?>
<svg
   width="650"
   height="650"
   viewBox="0 0 650 650"
   fill="none"
   version="1.1"
   id="svg20"
   sodipodi:docname="logo.svg"
   inkscape:version="1.1.1 (3bf5ae0d25, 2021-09-20)"
   inkscape:export-filename="/home/diego/Dropbox/Andurá/Identidade Visual/logo-branco.png"
   inkscape:export-xdpi="96"
   inkscape:export-ydpi="96"
   xmlns:inkscape="http://www.inkscape.org/namespaces/inkscape"
   xmlns:sodipodi="http://sodipodi.sourceforge.net/DTD/sodipodi-0.dtd"
   xmlns="http://www.w3.org/2000/svg"
   xmlns:svg="http://www.w3.org/2000/svg"
   xmlns:rdf="http://www.w3.org/1999/02/22-rdf-syntax-ns#"
   xmlns:cc="http://creativecommons.org/ns#"
   xmlns:dc="http://purl.org/dc/elements/1.1/">
  <path
     fill-rule="evenodd"
     clip-rule="evenodd"
     d="m 290.03948,367.1856 0.552,-8.232 c -61.89,-18.02 -97.4774,-82.821 -79.4577,-144.7103 18.0697,-61.8894 82.8207,-97.47711 144.7597,-79.4574 61.89,18.0699 97.427,82.8205 79.408,144.7097 -11.495,39.603 -39.855,67.913 -79.408,79.458 h -0.05 l 0.603,8.232 c 66.407,-18.372 105.407,-87.087 87.087,-153.4944 -18.372,-66.4571 -87.087,-105.4078 -153.494,-87.08694 -66.458,18.32084 -105.4082,87.03674 -87.0873,153.49434 12.0466,43.618 43.4183,74.99 87.0873,87.087 z"
     fill="black"
     stroke="black"
     stroke-width="0.1747"
     id="path18"
     style="fill:#24292e;fill-opacity:1;stroke:#ffffff;stroke-opacity:1" />
  <metadata
     id="metadata26">
    <rdf:RDF>
      <cc:Work
         rdf:about="">
        <dc:format>image/svg+xml</dc:format>
        <dc:type
           rdf:resource="http://purl.org/dc/dcmitype/StillImage" />
        <dc:title />
      </cc:Work>
    </rdf:RDF>
  </metadata>
  <defs
     id="defs24" />
  <sodipodi:namedview
     pagecolor="#ffffff"
     bordercolor="#666666"
     borderopacity="1"
     objecttolerance="10"
     gridtolerance="10"
     guidetolerance="10"
     inkscape:pageopacity="0"
     inkscape:pageshadow="2"
     inkscape:window-width="1366"
     inkscape:window-height="710"
     id="namedview22"
     showgrid="false"
     inkscape:zoom="0.54553201"
     inkscape:cx="319.87124"
     inkscape:cy="419.77372"
     inkscape:window-x="0"
     inkscape:window-y="0"
     inkscape:window-maximized="1"
     inkscape:current-layer="svg20"
     inkscape:document-rotation="0"
     inkscape:pagecheckerboard="0" />
  <path
     d="m 128.31353,528.0066 h -5.62175 c -0.25097,0 -0.45175,-0.101 -0.65252,-0.251 -0.15059,-0.201 -0.20078,-0.402 -0.20078,-0.603 v -30.166 c 0,-1.757 0.30117,-3.414 1.00388,-4.97 0.65253,-1.556 1.55602,-2.861 2.76069,-4.015 1.15446,-1.155 2.50971,-2.058 4.06573,-2.761 1.55602,-0.652 3.2124,-1.004 4.9692,-1.004 1.7568,0 3.4132,0.352 4.9692,1.004 1.5561,0.703 2.8611,1.606 4.0156,2.761 1.1545,1.154 2.0579,2.459 2.7607,4.015 0.6525,1.556 1.0039,3.213 1.0039,4.97 v 30.166 c 0,0.201 -0.1004,0.402 -0.251,0.603 -0.1506,0.15 -0.3514,0.251 -0.6023,0.251 h -5.672 c -0.2008,0 -0.3514,-0.101 -0.5521,-0.251 -0.1506,-0.201 -0.251,-0.402 -0.251,-0.603 v -13.703 h -10.94234 v 13.703 c 0,0.201 -0.10039,0.402 -0.25097,0.603 -0.15058,0.15 -0.35136,0.251 -0.55214,0.251 z m 11.74545,-21.885 v -9.135 c 0,-1.506 -0.5019,-2.761 -1.556,-3.865 -1.0541,-1.054 -2.3592,-1.556 -3.865,-1.556 -1.556,0 -2.86105,0.502 -3.91513,1.556 -1.10427,1.104 -1.60621,2.359 -1.60621,3.865 v 9.135 z"
     fill="black"
     id="path2"
     style="fill:#24292e;fill-opacity:1" />
  <path
     d="m 197.83358,484.3396 h 5.6218 c 0.5019,0 0.9537,0.151 1.4054,0.502 l 10.3902,10.792 v -10.541 c 0,-0.502 0.251,-0.753 0.753,-0.753 h 5.6719 c 0.5526,0 0.8536,0.251 0.8536,0.753 v 42.113 c 0,0.552 -0.301,0.803 -0.8536,0.803 h -5.6719 c -0.502,0 -0.753,-0.251 -0.753,-0.803 v -21.031 l -10.9925,-11.394 v 32.425 c 0,0.552 -0.251,0.803 -0.8031,0.803 h -5.6218 c -0.6023,0 -0.8533,-0.251 -0.8533,-0.803 v -42.113 c 0,-0.502 0.251,-0.753 0.8533,-0.753 z"
     fill="black"
     id="path4"
     style="fill:#24292e;fill-opacity:1" />
  <path
     d="m 279.39748,484.2366 c 3.012,0 5.873,0.603 8.533,1.707 2.661,1.154 4.97,2.71 6.927,4.718 2.008,1.958 3.564,4.317 4.718,6.927 1.155,2.66 1.707,5.521 1.707,8.533 0,3.012 -0.552,5.873 -1.707,8.533 -1.154,2.66 -2.71,4.969 -4.718,6.977 -1.957,1.957 -4.266,3.513 -6.927,4.668 -2.66,1.154 -5.521,1.707 -8.533,1.707 h -6.425 c -0.251,0 -0.451,-0.101 -0.602,-0.251 -0.201,-0.201 -0.251,-0.402 -0.251,-0.603 v -42.062 c 0,-0.553 0.301,-0.854 0.853,-0.854 z m 0,36.491 c 2.008,0 3.915,-0.401 5.672,-1.154 1.807,-0.803 3.313,-1.857 4.668,-3.162 1.305,-1.305 2.359,-2.811 3.112,-4.618 0.753,-1.757 1.155,-3.664 1.155,-5.672 0,-2.008 -0.402,-3.865 -1.155,-5.672 -0.753,-1.757 -1.807,-3.313 -3.112,-4.668 -1.355,-1.305 -2.861,-2.359 -4.668,-3.112 -1.757,-0.753 -3.664,-1.104 -5.672,-1.104 z"
     fill="black"
     id="path6"
     style="fill:#24292e;fill-opacity:1" />
  <path
     d="m 355.84448,484.2366 c 0.552,0 0.803,0.301 0.803,0.803 v 30.167 c 0,1.556 0.502,2.861 1.606,3.915 1.054,1.054 2.359,1.606 3.915,1.606 1.506,0 2.761,-0.552 3.865,-1.606 1.054,-1.054 1.556,-2.359 1.556,-3.915 v -30.167 c 0,-0.502 0.301,-0.803 0.904,-0.803 h 5.571 c 0.552,0 0.854,0.301 0.854,0.803 v 30.167 c 0,1.757 -0.352,3.413 -1.004,4.969 -0.703,1.556 -1.606,2.912 -2.761,4.066 -1.154,1.154 -2.459,2.108 -4.015,2.761 -1.557,0.652 -3.213,1.004 -4.97,1.004 -1.757,0 -3.413,-0.352 -4.969,-1.004 -1.556,-0.653 -2.911,-1.607 -4.066,-2.761 -1.204,-1.154 -2.108,-2.51 -2.76,-4.066 -0.703,-1.556 -1.004,-3.212 -1.004,-4.969 v -30.167 c 0,-0.2 0.05,-0.401 0.251,-0.552 0.201,-0.15 0.401,-0.251 0.602,-0.251 z"
     fill="black"
     id="path8"
     style="fill:#24292e;fill-opacity:1" />
  <path
     d="m 439.06448,484.3396 c 2.008,0 3.916,0.352 5.672,1.105 1.807,0.752 3.313,1.806 4.618,3.112 1.305,1.355 2.359,2.911 3.163,4.668 0.752,1.807 1.154,3.664 1.154,5.672 0,2.76 -0.703,5.22 -2.108,7.478 -1.355,2.259 -3.162,4.016 -5.421,5.221 l 7.178,15.71 c 0.2,0.452 0,0.703 -0.502,0.703 h -6.375 c -0.201,0 -0.452,-0.05 -0.703,-0.201 -0.2,-0.15 -0.401,-0.301 -0.451,-0.502 l -2.611,-5.722 -6.675,-14.656 c -0.201,-0.502 -0.051,-0.753 0.502,-0.753 h 2.559 c 1.004,0 1.958,-0.151 2.811,-0.552 0.904,-0.402 1.707,-0.904 2.359,-1.556 0.653,-0.653 1.155,-1.456 1.557,-2.36 0.401,-0.903 0.602,-1.807 0.602,-2.81 0,-1.004 -0.201,-1.958 -0.602,-2.862 -0.402,-0.853 -0.904,-1.606 -1.557,-2.258 -0.652,-0.653 -1.455,-1.205 -2.359,-1.606 -0.853,-0.352 -1.807,-0.553 -2.811,-0.553 h -7.278 v 35.588 c 0,0.201 -0.1,0.402 -0.301,0.552 -0.15,0.201 -0.351,0.251 -0.552,0.251 h -5.622 c -0.552,0 -0.803,-0.251 -0.803,-0.803 v -42.113 c 0,-0.502 0.251,-0.753 0.803,-0.753 z"
     fill="black"
     id="path10"
     style="fill:#24292e;fill-opacity:1" />
  <path
     d="m 516.56648,470.8356 h 6.174 c 0.401,0 0.502,0.201 0.301,0.552 l -4.969,8.834 c -0.201,0.352 -0.502,0.552 -0.904,0.552 h -3.865 c -0.351,0 -0.502,-0.2 -0.401,-0.652 l 2.861,-8.684 c 0.1,-0.401 0.401,-0.602 0.803,-0.602 z m -7.479,57.171 h -5.572 c -0.602,0 -0.853,-0.301 -0.853,-0.853 v -30.167 c 0,-1.757 0.301,-3.413 1.004,-4.969 0.653,-1.556 1.556,-2.861 2.71,-4.016 1.155,-1.154 2.51,-2.058 4.066,-2.76 1.556,-0.653 3.213,-1.004 4.969,-1.004 1.757,0 3.414,0.351 4.97,1.004 1.505,0.702 2.861,1.606 4.015,2.76 1.155,1.155 2.058,2.46 2.711,4.016 0.702,1.556 1.054,3.212 1.054,4.969 v 30.167 c 0,0.552 -0.301,0.853 -0.803,0.853 h -5.672 c -0.552,0 -0.854,-0.301 -0.854,-0.853 v -13.703 h -10.892 v 13.703 c 0,0.552 -0.301,0.853 -0.853,0.853 z m 11.745,-21.885 v -9.135 c 0,-1.506 -0.502,-2.761 -1.556,-3.865 -1.104,-1.054 -2.359,-1.556 -3.865,-1.556 -1.505,0 -2.81,0.502 -3.865,1.556 -1.054,1.104 -1.606,2.359 -1.606,3.865 v 9.135 z"
     fill="black"
     id="path12"
     style="fill:#24292e;fill-opacity:1" />
  <path
     fill-rule="evenodd"
     clip-rule="evenodd"
     d="m 383.60048,436.0526 h -120.767 l -0.302,8.081 h 121.37 z"
     fill="black"
     stroke="black"
     stroke-width="0.1747"
     id="path14"
     style="fill:#24292e;fill-opacity:1;stroke:#ffffff;stroke-opacity:1" />
  <path
     fill-rule="evenodd"
     clip-rule="evenodd"
     d="m 335.31348,210.6289 h -24.143 l -2.359,62.8937 -27.507,-27.507 6.275,-13.552 -7.279,-3.363 -8.683,18.622 36.792,36.792 -5.32,141.498 h 40.255 l -3.463,-93.161 52.905,-52.905 -11.545,-24.695 -7.278,3.413 9.135,19.576 -43.619,43.619 z m -16.413,8.0813 h 8.633 l 7.479,199.2204 h -23.541 z"
     fill="black"
     stroke="black"
     stroke-width="0.1747"
     id="path16"
     style="fill:#24292e;fill-opacity:1;stroke:#ffffff;stroke-opacity:1" />
</svg>
